<svg xmlns="http://www.w3.org/2000/svg" version="1.1" xmlns:xlink="http://www.w3.org/1999/xlink" xmlns:svgjs="http://svgjs.dev/svgjs" width="1500" height="337" viewBox="0 0 1500 337"><g transform="matrix(1,0,0,1,-0.9090909090909918,0.142864943740733)"><svg viewBox="0 0 396 89" data-background-color="#ffffff" preserveAspectRatio="xMidYMid meet" height="337" width="1500" xmlns="http://www.w3.org/2000/svg" xmlns:xlink="http://www.w3.org/1999/xlink"><g id="tight-bounds" transform="matrix(1,0,0,1,0.2400000000000091,-0.03772991095823386)"><svg viewBox="0 0 395.52 89.07545982191645" height="89.07545982191645" width="395.52"><g><svg viewBox="0 0 395.52000000000004 89.07545982191647" height="89.07545982191645" width="395.52"><g><svg viewBox="0 0 395.52000000000004 89.07545982191647" height="89.07545982191647" width="395.52000000000004"><g id="textblocktransform"><svg viewBox="0 0 395.52000000000004 89.07545982191647" height="89.07545982191647" width="395.52000000000004" id="textblock"><g><svg viewBox="0 0 395.52000000000004 48.04304668304669" height="48.04304668304669" width="395.52000000000004"><g transform="matrix(1,0,0,1,0,0)"><svg width="395.52000000000004" viewBox="4.15 -38.8 325.57000000000005 39.55" height="48.04304668304669" data-palette-color="#096a2e"><g class="wordmark-text-0" data-fill-palette-color="primary" id="text-0"><path d="M32.85 0L27.5 0Q25.8-2.85 23.7-6.13 21.6-9.4 19.35-12.73 17.1-16.05 14.78-19.18 12.45-22.3 10.35-24.8L10.35-24.8 10.35 0 4.15 0 4.15-34.65 9.3-34.65Q11.3-32.55 13.6-29.68 15.9-26.8 18.23-23.7 20.55-20.6 22.73-17.48 24.9-14.35 26.6-11.65L26.6-11.65 26.6-34.65 32.85-34.65 32.85 0ZM50.05-4.25L50.05-4.25Q52.85-4.25 54.3-4.55L54.3-4.55 54.3-11.25Q53.8-11.4 52.85-11.55 51.9-11.7 50.75-11.7L50.75-11.7Q49.75-11.7 48.72-11.55 47.7-11.4 46.87-11 46.05-10.6 45.55-9.88 45.05-9.15 45.05-8.05L45.05-8.05Q45.05-5.9 46.4-5.08 47.75-4.25 50.05-4.25ZM49.55-26.8L49.55-26.8Q52.55-26.8 54.6-26.05 56.65-25.3 57.87-23.95 59.1-22.6 59.62-20.68 60.15-18.75 60.15-16.45L60.15-16.45 60.15-0.6Q58.75-0.3 55.92 0.13 53.1 0.55 49.55 0.55L49.55 0.55Q47.2 0.55 45.25 0.1 43.3-0.35 41.92-1.35 40.55-2.35 39.77-3.95 39-5.55 39-7.9L39-7.9Q39-10.15 39.87-11.7 40.75-13.25 42.25-14.23 43.75-15.2 45.72-15.63 47.7-16.05 49.85-16.05L49.85-16.05Q50.85-16.05 51.95-15.93 53.05-15.8 54.3-15.5L54.3-15.5 54.3-16.5Q54.3-17.55 54.05-18.5 53.8-19.45 53.17-20.18 52.55-20.9 51.52-21.3 50.5-21.7 48.95-21.7L48.95-21.7Q46.85-21.7 45.1-21.4 43.35-21.1 42.25-20.7L42.25-20.7 41.5-25.6Q42.65-26 44.85-26.4 47.05-26.8 49.55-26.8ZM67.25-10.4L67.25-33.05 73.3-34.05 73.3-26.15 82.6-26.15 82.6-21.1 73.3-21.1 73.3-10.45Q73.3-7.3 74.3-5.95 75.3-4.6 77.7-4.6L77.7-4.6Q79.35-4.6 80.62-4.95 81.9-5.3 82.65-5.6L82.65-5.6 83.65-0.8Q82.6-0.35 80.9 0.13 79.2 0.6 76.9 0.6L76.9 0.6Q74.1 0.6 72.22-0.15 70.35-0.9 69.25-2.33 68.15-3.75 67.7-5.78 67.25-7.8 67.25-10.4L67.25-10.4ZM109.89-26.15L109.89-0.8Q108.14-0.35 105.34 0.13 102.54 0.6 99.19 0.6L99.19 0.6Q96.04 0.6 93.92-0.3 91.79-1.2 90.52-2.8 89.24-4.4 88.69-6.63 88.14-8.85 88.14-11.5L88.14-11.5 88.14-26.15 94.19-26.15 94.19-12.45Q94.19-8.25 95.42-6.45 96.64-4.65 99.69-4.65L99.69-4.65Q100.79-4.65 102.02-4.75 103.24-4.85 103.84-5L103.84-5 103.84-26.15 109.89-26.15ZM133.54-25.8L132.49-20.7Q131.74-20.95 130.42-21.23 129.09-21.5 127.34-21.5L127.34-21.5Q126.34-21.5 125.22-21.3 124.09-21.1 123.64-20.95L123.64-20.95 123.64 0 117.59 0 117.59-24.9Q119.34-25.55 121.97-26.13 124.59-26.7 127.79-26.7L127.79-26.7Q128.39-26.7 129.19-26.63 129.99-26.55 130.79-26.43 131.59-26.3 132.34-26.13 133.09-25.95 133.54-25.8L133.54-25.8ZM146.94-4.25L146.94-4.25Q149.74-4.25 151.19-4.55L151.19-4.55 151.19-11.25Q150.69-11.4 149.74-11.55 148.79-11.7 147.64-11.7L147.64-11.7Q146.64-11.7 145.61-11.55 144.59-11.4 143.76-11 142.94-10.6 142.44-9.88 141.94-9.15 141.94-8.05L141.94-8.05Q141.94-5.9 143.29-5.08 144.64-4.25 146.94-4.25ZM146.44-26.8L146.44-26.8Q149.44-26.8 151.49-26.05 153.54-25.3 154.76-23.95 155.99-22.6 156.51-20.68 157.04-18.75 157.04-16.45L157.04-16.45 157.04-0.6Q155.64-0.3 152.81 0.13 149.99 0.55 146.44 0.55L146.44 0.55Q144.09 0.55 142.14 0.1 140.19-0.35 138.81-1.35 137.44-2.35 136.66-3.95 135.89-5.55 135.89-7.9L135.89-7.9Q135.89-10.15 136.76-11.7 137.64-13.25 139.14-14.23 140.64-15.2 142.61-15.63 144.59-16.05 146.74-16.05L146.74-16.05Q147.74-16.05 148.84-15.93 149.94-15.8 151.19-15.5L151.19-15.5 151.19-16.5Q151.19-17.55 150.94-18.5 150.69-19.45 150.06-20.18 149.44-20.9 148.41-21.3 147.39-21.7 145.84-21.7L145.84-21.7Q143.74-21.7 141.99-21.4 140.24-21.1 139.14-20.7L139.14-20.7 138.39-25.6Q139.54-26 141.74-26.4 143.94-26.8 146.44-26.8ZM174.39-4.5L173.54 0.5Q170.84 0.45 169.06-0.1 167.29-0.65 166.24-1.68 165.19-2.7 164.76-4.23 164.34-5.75 164.34-7.7L164.34-7.7 164.34-37.8 170.39-38.8 170.39-8.85Q170.39-7.75 170.56-7 170.74-6.25 171.19-5.73 171.64-5.2 172.41-4.93 173.19-4.65 174.39-4.5L174.39-4.5ZM194.98 0.75L194.98 0.75Q191.08 0.75 187.98-0.45 184.88-1.65 182.73-3.98 180.58-6.3 179.43-9.65 178.28-13 178.28-17.35L178.28-17.35Q178.28-21.7 179.61-25.05 180.93-28.4 183.23-30.73 185.53-33.05 188.63-34.25 191.73-35.45 195.28-35.45L195.28-35.45Q197.43-35.45 199.18-35.13 200.93-34.8 202.23-34.4 203.53-34 204.38-33.55 205.23-33.1 205.58-32.9L205.58-32.9 203.73-27.75Q202.53-28.5 200.31-29.18 198.08-29.85 195.48-29.85L195.48-29.85Q193.23-29.85 191.28-29.08 189.33-28.3 187.91-26.75 186.48-25.2 185.68-22.85 184.88-20.5 184.88-17.4L184.88-17.4Q184.88-14.65 185.51-12.35 186.13-10.05 187.43-8.38 188.73-6.7 190.73-5.78 192.73-4.85 195.53-4.85L195.53-4.85Q198.88-4.85 200.98-5.53 203.08-6.2 204.23-6.8L204.23-6.8 205.93-1.65Q205.33-1.25 204.31-0.85 203.28-0.45 201.88-0.08 200.48 0.3 198.73 0.53 196.98 0.75 194.98 0.75ZM217.23 0L211.18 0 211.18-37.8 217.23-38.8 217.23-25.85Q218.23-26.2 219.56-26.45 220.88-26.7 222.18-26.7L222.18-26.7Q225.33-26.7 227.41-25.83 229.48-24.95 230.73-23.38 231.98-21.8 232.51-19.6 233.03-17.4 233.03-14.7L233.03-14.7 233.03 0 226.98 0 226.98-13.75Q226.98-15.85 226.71-17.32 226.43-18.8 225.81-19.73 225.18-20.65 224.13-21.08 223.08-21.5 221.53-21.5L221.53-21.5Q220.33-21.5 219.08-21.25 217.83-21 217.23-20.8L217.23-20.8 217.23 0ZM263.93-13.1L263.93-13.1Q263.93-10 263.03-7.45 262.13-4.9 260.48-3.1 258.83-1.3 256.5-0.3 254.18 0.7 251.38 0.7L251.38 0.7Q248.58 0.7 246.28-0.3 243.98-1.3 242.33-3.1 240.68-4.9 239.75-7.45 238.83-10 238.83-13.1L238.83-13.1Q238.83-16.2 239.75-18.73 240.68-21.25 242.35-23.05 244.03-24.85 246.33-25.83 248.63-26.8 251.38-26.8L251.38-26.8Q254.13-26.8 256.45-25.83 258.78-24.85 260.43-23.05 262.08-21.25 263-18.73 263.93-16.2 263.93-13.1ZM257.73-13.1L257.73-13.1Q257.73-17 256.05-19.28 254.38-21.55 251.38-21.55L251.38-21.55Q248.38-21.55 246.7-19.28 245.03-17 245.03-13.1L245.03-13.1Q245.03-9.15 246.7-6.85 248.38-4.55 251.38-4.55L251.38-4.55Q254.38-4.55 256.05-6.85 257.73-9.15 257.73-13.1ZM276.28-26.15L276.28 0 270.23 0 270.23-26.15 276.28-26.15ZM276.93-33.8L276.93-33.8Q276.93-32.1 275.83-31.1 274.73-30.1 273.23-30.1L273.23-30.1Q271.68-30.1 270.58-31.1 269.48-32.1 269.48-33.8L269.48-33.8Q269.48-35.55 270.58-36.55 271.68-37.55 273.23-37.55L273.23-37.55Q274.73-37.55 275.83-36.55 276.93-35.55 276.93-33.8ZM282.52-13.05L282.52-13.05Q282.52-15.95 283.42-18.48 284.32-21 286-22.85 287.67-24.7 290.07-25.75 292.47-26.8 295.47-26.8L295.47-26.8Q299.17-26.8 302.47-25.45L302.47-25.45 301.17-20.5Q300.12-20.95 298.8-21.25 297.47-21.55 295.97-21.55L295.97-21.55Q292.42-21.55 290.57-19.33 288.72-17.1 288.72-13.05L288.72-13.05Q288.72-9.15 290.47-6.88 292.22-4.6 296.37-4.6L296.37-4.6Q297.92-4.6 299.42-4.9 300.92-5.2 302.02-5.65L302.02-5.65 302.87-0.65Q301.87-0.15 299.85 0.25 297.82 0.65 295.67 0.65L295.67 0.65Q292.32 0.65 289.85-0.38 287.37-1.4 285.75-3.23 284.12-5.05 283.32-7.58 282.52-10.1 282.52-13.05ZM306.12-12.95L306.12-12.95Q306.12-16.4 307.15-19 308.17-21.6 309.87-23.33 311.57-25.05 313.77-25.93 315.97-26.8 318.27-26.8L318.27-26.8Q323.67-26.8 326.7-23.45 329.72-20.1 329.72-13.45L329.72-13.45Q329.72-12.95 329.7-12.33 329.67-11.7 329.62-11.2L329.62-11.2 312.37-11.2Q312.62-8.05 314.6-6.33 316.57-4.6 320.32-4.6L320.32-4.6Q322.52-4.6 324.35-5 326.17-5.4 327.22-5.85L327.22-5.85 328.02-0.9Q327.52-0.65 326.65-0.38 325.77-0.1 324.65 0.13 323.52 0.35 322.22 0.5 320.92 0.65 319.57 0.65L319.57 0.65Q316.12 0.65 313.57-0.38 311.02-1.4 309.37-3.23 307.72-5.05 306.92-7.53 306.12-10 306.12-12.95ZM312.42-15.65L323.67-15.65Q323.67-16.9 323.32-18.03 322.97-19.15 322.3-19.98 321.62-20.8 320.65-21.28 319.67-21.75 318.32-21.75L318.32-21.75Q316.92-21.75 315.87-21.23 314.82-20.7 314.1-19.85 313.37-19 312.97-17.9 312.57-16.8 312.42-15.65L312.42-15.65Z" fill="#096a2e" data-fill-palette-color="primary"></path></g></svg></g></svg></g><g transform="matrix(1,0,0,1,111.15455369696969,59.384856971793624)"><svg viewBox="0 0 173.21089260606067 29.690602850122854" height="29.690602850122854" width="173.21089260606067"><g transform="matrix(1,0,0,1,0,0)"><svg width="173.21089260606067" viewBox="5.4 -36.5 275.63 47.25" height="29.690602850122854" data-palette-color="#8abe53"><path d="M27.3-33L31.3-33 31.3 0 27.3 0 27.3-33ZM5.4-33L9.4-33 9.4 0 5.4 0 5.4-33ZM7.5-18.6L29.15-18.6 29.15-14.85 7.5-14.85 7.5-18.6ZM51.8 0.5L51.8 0.5Q48.25 0.5 45.47-1.05 42.7-2.6 41.15-5.53 39.6-8.45 39.6-12.5L39.6-12.5Q39.6-16.55 41.15-19.48 42.7-22.4 45.4-23.95 48.1-25.5 51.55-25.5L51.55-25.5Q55.05-25.5 57.52-24 60-22.5 61.3-19.93 62.6-17.35 62.6-14.15L62.6-14.15Q62.6-13.3 62.55-12.6 62.5-11.9 62.4-11.35L62.4-11.35 42.2-11.35 42.2-14.9 60.65-14.9 58.6-14.5Q58.6-18.1 56.62-20.05 54.65-22 51.45-22L51.45-22Q49-22 47.22-20.88 45.45-19.75 44.47-17.63 43.5-15.5 43.5-12.5L43.5-12.5Q43.5-9.55 44.5-7.4 45.5-5.25 47.32-4.13 49.15-3 51.7-3L51.7-3Q54.45-3 56.17-4.05 57.9-5.1 58.95-6.9L58.95-6.9 62.1-5.05Q61.15-3.35 59.67-2.1 58.2-0.85 56.22-0.18 54.25 0.5 51.8 0.5ZM84.8-9.25L84.8-16.15Q84.8-18.95 83.3-20.48 81.8-22 79.05-22L79.05-22Q76.45-22 74.65-20.88 72.85-19.75 72-17.25L72-17.25 68.75-19.25Q69.75-22.05 72.45-23.78 75.15-25.5 79.15-25.5L79.15-25.5Q81.85-25.5 84.05-24.58 86.25-23.65 87.52-21.78 88.8-19.9 88.8-16.95L88.8-16.95 88.8-4.85Q88.8-3.05 90.7-3.05L90.7-3.05Q91.65-3.05 92.55-3.3L92.55-3.3 92.35-0.15Q91.35 0.35 89.75 0.35L89.75 0.35Q88.3 0.35 87.15-0.2 86-0.75 85.35-1.88 84.7-3 84.7-4.7L84.7-4.7 84.7-5.2 85.7-5.05Q85.1-3.1 83.65-1.88 82.2-0.65 80.4-0.08 78.6 0.5 76.85 0.5L76.85 0.5Q74.65 0.5 72.75-0.25 70.85-1 69.72-2.53 68.6-4.05 68.6-6.3L68.6-6.3Q68.6-9.1 70.47-10.93 72.35-12.75 75.7-13.4L75.7-13.4 85.6-15.35 85.6-12.05 77.55-10.4Q75.1-9.9 73.9-9 72.7-8.1 72.7-6.5L72.7-6.5Q72.7-4.95 73.92-3.98 75.15-3 77.4-3L77.4-3Q78.85-3 80.17-3.38 81.5-3.75 82.55-4.53 83.6-5.3 84.2-6.48 84.8-7.65 84.8-9.25L84.8-9.25ZM98.29-36.5L102.29-36.5 102.29-6.35Q102.29-4.45 102.99-3.73 103.69-3 105.24-3L105.24-3Q106.24-3 106.89-3.15 107.54-3.3 108.64-3.7L108.64-3.7 107.99-0.2Q107.19 0.15 106.24 0.33 105.29 0.5 104.29 0.5L104.29 0.5Q101.24 0.5 99.77-1.15 98.29-2.8 98.29-6.2L98.29-6.2 98.29-36.5ZM115.69-31L119.69-32.1 119.69-6.9Q119.69-5.05 120.74-4.15 121.79-3.25 123.44-3.25L123.44-3.25Q124.89-3.25 125.94-3.75 126.99-4.25 127.84-5.1L127.84-5.1 129.24-1.75Q128.09-0.7 126.52-0.1 124.94 0.5 122.89 0.5L122.89 0.5Q120.99 0.5 119.34-0.18 117.69-0.85 116.72-2.33 115.74-3.8 115.69-6.2L115.69-6.2 115.69-31ZM110.69-25L128.79-25 128.79-21.55 110.69-21.55 110.69-25ZM138.74 0L134.74 0 134.74-36.5 138.74-36.5 138.74-21.25Q140.04-23.5 142.19-24.5 144.34-25.5 146.89-25.5L146.89-25.5Q149.59-25.5 151.79-24.48 153.99-23.45 155.31-21.35 156.64-19.25 156.64-16L156.64-16 156.64 0 152.64 0 152.64-14.6Q152.64-18.75 150.86-20.38 149.09-22 146.49-22L146.49-22Q144.69-22 142.89-21.15 141.09-20.3 139.91-18.38 138.74-16.45 138.74-13.25L138.74-13.25 138.74 0ZM177.04-33.5L177.04-33.5Q181.39-33.5 184.54-31.73 187.69-29.95 189.79-26.5L189.79-26.5 186.44-23.9Q184.59-27.1 182.26-28.43 179.94-29.75 176.64-29.75L176.64-29.75Q173.99-29.75 172.26-29 170.54-28.25 169.74-27.03 168.94-25.8 168.94-24.25L168.94-24.25Q168.94-22.5 170.04-21.18 171.14-19.85 174.44-19.1L174.44-19.1 181.59-17.5Q186.34-16.45 188.21-14.33 190.09-12.2 190.09-9.05L190.09-9.05Q190.09-6.25 188.51-4.08 186.94-1.9 184.09-0.7 181.24 0.5 177.39 0.5L177.39 0.5Q173.79 0.5 171.06-0.48 168.34-1.45 166.39-3.1 164.44-4.75 163.19-6.8L163.19-6.8 166.69-9.65Q167.64-7.75 169.14-6.3 170.64-4.85 172.76-4.05 174.89-3.25 177.64-3.25L177.64-3.25Q180.19-3.25 182.06-3.88 183.94-4.5 184.94-5.73 185.94-6.95 185.94-8.7L185.94-8.7Q185.94-10.3 184.89-11.58 183.84-12.85 180.94-13.5L180.94-13.5 173.19-15.25Q170.14-15.95 168.26-17.18 166.39-18.4 165.56-20.08 164.74-21.75 164.74-23.7L164.74-23.7Q164.74-26.35 166.21-28.58 167.69-30.8 170.46-32.15 173.24-33.5 177.04-33.5ZM199.63-31L203.63-32.1 203.63-6.9Q203.63-5.05 204.68-4.15 205.73-3.25 207.38-3.25L207.38-3.25Q208.83-3.25 209.88-3.75 210.93-4.25 211.78-5.1L211.78-5.1 213.18-1.75Q212.03-0.7 210.46-0.1 208.88 0.5 206.83 0.5L206.83 0.5Q204.93 0.5 203.28-0.18 201.63-0.85 200.66-2.33 199.68-3.8 199.63-6.2L199.63-6.2 199.63-31ZM194.63-25L212.73-25 212.73-21.55 194.63-21.55 194.63-25ZM234.93-25L239.23-25 227.48 4.2Q226.53 6.65 225.41 8.08 224.28 9.5 222.91 10.13 221.53 10.75 219.73 10.75L219.73 10.75Q218.03 10.75 216.61 10.28 215.18 9.8 214.08 9L214.08 9 215.18 5.5Q216.18 6.4 217.31 6.83 218.43 7.25 219.53 7.25L219.53 7.25Q220.83 7.25 221.98 6.45 223.13 5.65 224.08 3.2L224.08 3.2 225.38-0.05 222.88-6 214.93-25 219.48-25 225.73-8.7 227.28-4.25 229.08-9.2 234.93-25ZM244.28-36.5L248.28-36.5 248.28-6.35Q248.28-4.45 248.98-3.73 249.68-3 251.23-3L251.23-3Q252.23-3 252.88-3.15 253.53-3.3 254.63-3.7L254.63-3.7 253.98-0.2Q253.18 0.15 252.23 0.33 251.28 0.5 250.28 0.5L250.28 0.5Q247.23 0.5 245.75-1.15 244.28-2.8 244.28-6.2L244.28-6.2 244.28-36.5ZM270.23 0.5L270.23 0.5Q266.68 0.5 263.9-1.05 261.13-2.6 259.58-5.53 258.03-8.45 258.03-12.5L258.03-12.5Q258.03-16.55 259.58-19.48 261.13-22.4 263.83-23.95 266.53-25.5 269.98-25.5L269.98-25.5Q273.48-25.5 275.95-24 278.43-22.5 279.73-19.93 281.03-17.35 281.03-14.15L281.03-14.15Q281.03-13.3 280.98-12.6 280.93-11.9 280.83-11.35L280.83-11.35 260.63-11.35 260.63-14.9 279.08-14.9 277.03-14.5Q277.03-18.1 275.05-20.05 273.08-22 269.88-22L269.88-22Q267.43-22 265.65-20.88 263.88-19.75 262.9-17.63 261.93-15.5 261.93-12.5L261.93-12.5Q261.93-9.55 262.93-7.4 263.93-5.25 265.75-4.13 267.58-3 270.13-3L270.13-3Q272.88-3 274.6-4.05 276.33-5.1 277.38-6.9L277.38-6.9 280.53-5.05Q279.58-3.35 278.1-2.1 276.63-0.85 274.65-0.18 272.68 0.5 270.23 0.5Z" opacity="1" transform="matrix(1,0,0,1,0,0)" fill="#8abe53" class="slogan-text-1" data-fill-palette-color="secondary" id="text-1"></path></svg></g></svg></g></svg></g></svg></g><g></g></svg></g><defs></defs></svg><rect width="395.52" height="89.07545982191645" fill="none" stroke="none" visibility="hidden"></rect></g></svg></g></svg>